<svg width="190.000000" height="36.765320" viewBox="0 0 190 36.7653" fill="none" xmlns="http://www.w3.org/2000/svg" xmlns:xlink="http://www.w3.org/1999/xlink">
	<desc>
			Created with Pixso.
	</desc>
	<defs/>
	<path d="M12.03 36.2L4.87 36.2L4.87 18.35L0 18.35L0 12.54L4.87 12.54L4.87 8.41C4.87 3.51 7.03 0 14.17 0C15.68 0 18.05 0.3 18.05 0.3L18.05 5.69L15.56 5.69C13.02 5.69 12.03 6.47 12.03 8.6L12.03 12.54L17.95 12.54L17.43 18.35L12.03 18.35L12.03 36.2ZM28.46 12.08C28.35 12.08 28.24 12.08 28.14 12.08C21.5 12.08 18.46 17.07 18.46 24.16C18.46 33.09 22.4 36.67 28.19 36.67C31.5 36.67 33.68 35.27 35 32.67L35 36.2L41.81 36.2L41.81 12.55L35 12.55L35 16.18C33.92 13.84 31.69 12.11 28.46 12.08ZM30.19 17.67C32.98 17.67 34.65 19.61 34.65 22.92L34.66 26.3C34.66 28.53 33.27 31.13 30.19 31.13C25.45 31.13 25.57 26.01 25.57 24.3C25.57 18.57 28.1 17.67 30.19 17.67ZM44.56 24.38C44.56 21.5 44.43 12.1 56.68 12.1C61.6 12.1 63.66 13.66 63.66 13.66L62.01 18.79C62.01 18.79 59.96 17.66 57.28 17.66C53.85 17.66 51.67 19.64 51.67 23.13L51.68 25.64C51.68 28.99 53.79 31.23 57.29 31.23C59.73 31.23 61.97 30.09 61.97 30.09L63.61 35.11C63.61 35.11 61.74 36.68 56.72 36.68C45.04 36.67 44.56 28.23 44.56 24.38ZM103.58 12.08C110.22 12.08 113.31 17.07 113.31 24.16C113.31 33.09 109.36 36.67 103.58 36.67C100.27 36.67 97.82 35.27 96.5 32.67L96.5 36.2L89.77 36.2L89.77 0.71L96.91 0.09L96.91 15.86C97.94 13.1 101.32 12.08 103.58 12.08ZM101.58 17.67C98.79 17.67 96.91 19.61 96.91 22.92L96.9 26.3C96.9 28.53 98.2 31.13 101.58 31.13C106.32 31.13 106.19 26.01 106.19 24.3C106.19 18.57 103.67 17.67 101.58 17.67ZM76.04 12.1C68.51 12.1 64.54 16.21 64.54 23.5L64.54 24.86C64.54 34.32 70.12 36.76 76.77 36.76C83.24 36.76 86.17 34.95 86.17 34.95L84.83 30.13C84.83 30.13 81.39 31.6 77.63 31.6C73.73 31.6 72.05 30.6 71.62 26.85L86.74 26.85L86.74 22.99C86.74 15.09 82.28 12.1 76.04 12.1ZM76.22 16.93C78.83 16.93 80.52 18.53 80.42 22.23L71.64 22.23C71.79 18.33 73.61 16.93 76.22 16.93ZM127.54 12.07C119.81 12.07 115.74 16.43 115.74 24.24C115.74 34.95 122.75 36.68 127.55 36.68C134.58 36.68 139.25 32.89 139.25 24.34C139.25 15.43 134 12.07 127.54 12.07ZM127.44 17.69C130.84 17.69 132.19 20.23 132.19 23.13L132.19 25.62C132.19 29.12 130.3 31.15 127.43 31.15C124.74 31.15 122.85 29.25 122.85 25.62L122.85 23.13C122.85 19.24 125.1 17.69 127.44 17.69ZM153.47 12.07C145.74 12.07 141.67 16.43 141.67 24.24C141.67 34.95 148.69 36.68 153.49 36.68C160.51 36.68 165.19 32.89 165.19 24.34C165.18 15.43 159.93 12.07 153.47 12.07ZM153.38 17.69C156.78 17.69 158.12 20.23 158.12 23.13L158.12 25.62C158.12 29.12 156.24 31.15 153.37 31.15C150.67 31.15 148.78 29.25 148.78 25.62L148.78 23.13C148.78 19.24 151.03 17.69 153.38 17.69ZM167.88 36.2L167.88 0.71L175.04 0.09L175.04 23.87L182.15 12.54L189.71 12.54L182.3 24.28L190 36.2L182.41 36.2L175.04 24.63L175.04 36.2L167.88 36.2Z" fill="#1877F2" fill-opacity="1.000000" fill-rule="nonzero"/>
</svg>
