<svg width="160.000000" height="49.909180" viewBox="0 0 160 49.9092" fill="none" xmlns="http://www.w3.org/2000/svg" xmlns:xlink="http://www.w3.org/1999/xlink">
	<desc>
			Created with Pixso.
	</desc>
	<defs/>
	<path d="M84.3 12.58C84.3 14.38 82.85 15.83 81.05 15.83C79.25 15.83 77.8 14.38 77.8 12.58C77.8 10.78 79.2 9.33 81.05 9.33C82.89 9.38 84.3 10.83 84.3 12.58ZM70.87 19.11C70.87 19.42 70.87 19.9 70.87 19.9C70.87 19.9 69.34 17.89 66 17.89C60.57 17.89 56.31 22.05 56.31 27.8C56.31 33.5 60.52 37.71 66 37.71C69.34 37.71 70.87 35.65 70.87 35.65L70.87 36.48C70.87 36.88 71.18 37.19 71.58 37.19L75.61 37.19L75.61 18.41C75.61 18.41 71.93 18.41 71.58 18.41C71.18 18.41 70.87 18.76 70.87 19.11ZM70.87 31.18C70.13 32.27 68.64 33.24 66.84 33.24C63.64 33.24 61.18 31.22 61.18 27.84C61.18 24.42 63.64 22.45 66.84 22.45C68.59 22.45 70.17 23.46 70.87 24.51L70.87 31.18ZM78.64 18.41L83.42 18.41L83.42 37.23L78.64 37.23L78.64 18.41ZM150.35 17.93C147.05 17.93 145.48 19.95 145.48 19.95L145.48 9.38L140.7 9.38L140.7 37.23C140.7 37.23 144.38 37.23 144.73 37.23C145.12 37.23 145.43 36.88 145.43 36.53L145.43 35.69C145.43 35.69 146.97 37.75 150.3 37.75C155.74 37.75 160 33.54 160 27.84C160 22.1 155.74 17.93 150.35 17.93ZM149.55 33.15C147.71 33.15 146.26 32.19 145.52 31.09L145.52 24.38C146.27 23.37 147.89 22.32 149.55 22.32C152.76 22.32 155.21 24.34 155.21 27.71C155.21 31.18 152.76 33.15 149.55 33.15ZM138.2 26.09L138.2 37.27L133.41 37.27L133.41 26.62C133.41 23.5 132.4 22.28 129.73 22.28C128.28 22.28 126.79 23.02 125.83 24.12L125.83 37.23L121.05 37.23L121.05 18.41L124.86 18.41C125.26 18.41 125.56 18.76 125.56 19.12L125.56 19.91C126.97 18.46 128.81 17.89 130.65 17.89C132.76 17.89 134.51 18.5 135.91 19.69C137.54 21.13 138.2 22.93 138.2 26.09ZM109.34 17.93C106.05 17.93 104.47 19.95 104.47 19.95L104.47 9.38L99.69 9.38L99.69 37.23C99.69 37.23 103.37 37.23 103.72 37.23C104.11 37.23 104.42 36.88 104.42 36.53L104.42 35.69C104.42 35.69 105.96 37.75 109.29 37.75C114.73 37.75 118.99 33.54 118.99 27.84C119.03 22.1 114.78 17.93 109.34 17.93ZM108.55 33.15C106.71 33.15 105.26 32.19 104.51 31.09L104.51 24.38C105.26 23.37 106.88 22.32 108.55 22.32C111.75 22.32 114.21 24.34 114.21 27.71C114.2 31.18 111.75 33.15 108.55 33.15ZM95.52 17.93C96.97 17.93 97.71 18.19 97.71 18.19L97.71 22.62C97.71 22.62 93.72 21.26 91.22 24.11L91.22 37.27L86.44 37.27L86.44 18.41C86.44 18.41 90.13 18.41 90.48 18.41C90.87 18.41 91.18 18.76 91.18 19.11L91.18 19.9C92.1 18.85 94.03 17.93 95.52 17.93ZM45.65 35.52C45.39 34.9 45.17 34.24 44.91 33.72C44.51 32.8 44.12 31.97 43.77 31.18L43.72 31.13C40.26 23.63 36.57 16.04 32.67 8.54L32.54 8.24C32.15 7.49 31.75 6.7 31.35 5.87C30.87 4.95 30.35 4.03 29.56 3.11C27.98 1.09 25.65 0 23.2 0C20.7 0 18.46 1.09 16.8 2.98C16.05 3.9 15.48 4.82 15 5.74C14.6 6.53 14.21 7.32 13.81 8.11L13.68 8.41C9.82 15.91 6.1 23.5 2.63 31L2.59 31.09C2.24 31.88 1.84 32.75 1.45 33.63C1.18 34.2 0.96 34.77 0.7 35.43C0.04 37.27 -0.14 39.03 0.09 40.82C0.65 44.59 3.15 47.71 6.58 49.11C7.89 49.68 9.21 49.9 10.61 49.9C11 49.9 11.53 49.86 11.93 49.82C13.59 49.6 15.26 49.07 16.93 48.11C18.99 46.97 20.92 45.3 23.11 42.89C25.3 45.3 27.32 46.92 29.3 48.11C30.96 49.07 32.63 49.6 34.3 49.82C34.69 49.86 35.22 49.9 35.61 49.9C37.01 49.9 38.42 49.64 39.65 49.11C43.15 47.71 45.61 44.51 46.14 40.82C46.53 39.11 46.31 37.36 45.65 35.52ZM23.11 38.1C20.39 34.68 18.68 31.48 18.07 28.81C17.8 27.67 17.76 26.66 17.94 25.74C18.02 24.95 18.33 24.25 18.73 23.63C19.69 22.27 21.27 21.44 23.11 21.44C24.95 21.44 26.62 22.23 27.5 23.63C27.89 24.24 28.2 24.95 28.29 25.74C28.42 26.66 28.37 27.67 28.15 28.81C27.58 31.48 25.83 34.69 23.11 38.1ZM43.07 40.47C42.72 43.06 40.96 45.34 38.5 46.31C37.32 46.79 36 46.97 34.69 46.79C33.42 46.66 32.19 46.22 30.87 45.47C29.08 44.46 27.28 42.93 25.17 40.6C28.46 36.57 30.48 32.84 31.22 29.55C31.57 28.02 31.62 26.61 31.49 25.3C31.27 24.03 30.83 22.89 30.13 21.88C28.59 19.64 25.96 18.32 23.06 18.32C20.17 18.32 17.58 19.68 16 21.88C15.3 22.89 14.86 24.03 14.64 25.3C14.42 26.61 14.51 28.06 14.9 29.55C15.65 32.84 17.71 36.61 20.96 40.65C18.9 42.93 17.05 44.51 15.25 45.52C13.94 46.26 12.71 46.66 11.44 46.83C10.08 46.96 8.81 46.79 7.62 46.35C5.17 45.34 3.41 43.1 3.06 40.52C2.93 39.24 3.02 38.02 3.5 36.61C3.63 36.13 3.89 35.6 4.16 35.04C4.51 34.24 4.9 33.37 5.3 32.54L5.34 32.45C8.81 24.99 12.49 17.4 16.35 9.99L16.48 9.69C16.88 8.94 17.27 8.15 17.67 7.4C18.06 6.61 18.5 5.87 19.07 5.21C20.12 4.03 21.53 3.37 23.06 3.37C24.6 3.37 26 4.03 27.05 5.21C27.62 5.87 28.06 6.61 28.45 7.4C28.85 8.15 29.25 8.94 29.64 9.69L29.77 9.99C33.59 17.45 37.27 25.04 40.74 32.49L40.74 32.54C41.13 33.33 41.48 34.24 41.88 35.04C42.14 35.65 42.36 36.13 42.54 36.61C43.11 37.93 43.29 39.16 43.07 40.47Z" fill="#FF5A5F" fill-opacity="1.000000" fill-rule="nonzero"/>
</svg>
