<svg width="150.000000" height="49.135132" viewBox="0 0 150 49.1351" fill="none" xmlns="http://www.w3.org/2000/svg" xmlns:xlink="http://www.w3.org/1999/xlink">
	<desc>
			Created with Pixso.
	</desc>
	<defs/>
	<path d="M36.89 17.35L19.37 17.35L19.37 22.54L31.78 22.54C31.17 29.83 25.09 32.91 19.37 32.91C12.04 32.91 5.67 27.16 5.67 19.09C5.67 11.22 11.75 5.18 19.37 5.18C25.25 5.18 28.74 8.95 28.74 8.95L32.39 5.18C32.39 5.18 27.72 0 19.21 0C8.39 0 0 9.16 0 19.01C0 28.7 7.9 38.14 19.5 38.14C29.71 38.14 37.17 31.13 37.17 20.79C37.17 18.6 36.89 17.35 36.89 17.35Z" fill="#4285F4" fill-opacity="1.000000" fill-rule="nonzero"/>
	<path d="M51.2 13.58C44.02 13.58 38.87 19.21 38.87 25.74C38.87 32.39 43.86 38.1 51.28 38.1C58.01 38.1 63.48 32.95 63.48 25.9C63.52 17.75 57.12 13.58 51.2 13.58ZM51.28 18.4C54.81 18.4 58.17 21.24 58.17 25.86C58.17 30.36 54.85 33.32 51.28 33.32C47.35 33.32 44.27 30.2 44.27 25.86C44.27 21.56 47.31 18.4 51.28 18.4Z" fill="#EA4335" fill-opacity="1.000000" fill-rule="nonzero"/>
	<path d="M78.04 13.58C70.86 13.58 65.71 19.21 65.71 25.74C65.71 32.39 70.7 38.1 78.12 38.1C84.85 38.1 90.32 32.95 90.32 25.9C90.32 17.75 83.91 13.58 78.04 13.58ZM78.12 18.4C81.64 18.4 85.01 21.24 85.01 25.86C85.01 30.36 81.68 33.32 78.12 33.32C74.18 33.32 71.1 30.2 71.1 25.86C71.06 21.56 74.14 18.4 78.12 18.4Z" fill="#FBBC05" fill-opacity="1.000000" fill-rule="nonzero"/>
	<path d="M104.31 13.58C97.7 13.58 92.55 19.33 92.55 25.82C92.55 33.2 98.55 38.1 104.23 38.1C107.71 38.1 109.58 36.72 110.96 35.1L110.96 37.54C110.96 41.75 108.4 44.31 104.51 44.31C100.78 44.31 98.87 41.51 98.23 39.93L93.52 41.91C95.18 45.44 98.55 49.13 104.55 49.13C111.12 49.13 116.1 45 116.1 36.36L116.1 14.31L110.96 14.31L110.96 16.37C109.37 14.71 107.19 13.58 104.31 13.58ZM104.79 18.4C108.04 18.4 111.36 21.16 111.36 25.86C111.36 30.64 108.04 33.28 104.75 33.28C101.23 33.28 97.98 30.44 97.98 25.9C97.94 21.2 101.35 18.4 104.79 18.4Z" fill="#4285F4" fill-opacity="1.000000" fill-rule="nonzero"/>
	<path d="M138.93 13.58C132.73 13.58 127.5 18.52 127.5 25.82C127.5 33.56 133.33 38.14 139.54 38.14C144.73 38.14 147.93 35.31 149.79 32.75L145.54 29.91C144.44 31.62 142.58 33.28 139.54 33.28C136.09 33.28 134.51 31.37 133.54 29.55L150 22.74L149.14 20.75C147.56 16.82 143.83 13.58 138.93 13.58ZM139.17 18.28C141.4 18.28 143.02 19.45 143.71 20.91L132.73 25.5C132.24 21.93 135.6 18.28 139.17 18.28Z" fill="#EA4335" fill-opacity="1.000000" fill-rule="nonzero"/>
	<path d="M119.67 1.25L125.06 1.25L125.06 37.41L119.67 37.41L119.67 1.25Z" fill="#34A853" fill-opacity="1.000000" fill-rule="evenodd"/>
</svg>
