<svg width="200.000000" height="42.684418" viewBox="0 0 200 42.6844" fill="none" xmlns="http://www.w3.org/2000/svg" xmlns:xlink="http://www.w3.org/1999/xlink">
	<desc>
			Created with Pixso.
	</desc>
	<defs/>
	<path d="M200 19.26L200 15.73L195.63 15.73L195.63 10.26L195.47 10.31L191.36 11.57L191.26 11.57L191.26 15.73L184.78 15.73L184.78 13.41C184.78 12.36 185.05 11.52 185.52 10.99C186 10.47 186.68 10.15 187.52 10.15C188.15 10.15 188.78 10.31 189.42 10.57L189.57 10.63L189.57 6.94L189.52 6.89C188.94 6.68 188.1 6.57 187.1 6.57C185.84 6.57 184.68 6.84 183.68 7.41C182.68 7.94 181.89 8.73 181.31 9.73C180.73 10.73 180.47 11.89 180.47 13.15L180.47 15.68L177.42 15.68L177.42 19.2L180.47 19.2L180.47 34.05L184.84 34.05L184.84 19.2L191.31 19.2L191.31 28.68C191.31 32.57 193.15 34.52 196.73 34.52C197.31 34.52 197.94 34.47 198.57 34.31C199.21 34.15 199.68 34.05 199.94 33.89L200 33.84L200 30.31L199.84 30.42C199.57 30.57 199.31 30.68 198.94 30.78C198.57 30.89 198.31 30.94 198.1 30.94C197.26 30.94 196.63 30.73 196.26 30.26C195.89 29.78 195.68 28.99 195.68 27.89L195.68 19.26L200 19.26ZM167.68 30.94C166.1 30.94 164.84 30.42 163.94 29.36C163.05 28.31 162.63 26.84 162.63 24.94C162.63 22.99 163.1 21.47 163.94 20.41C164.84 19.36 166.05 18.84 167.63 18.84C169.15 18.84 170.36 19.36 171.21 20.36C172.05 21.36 172.52 22.89 172.52 24.84C172.52 26.84 172.1 28.36 171.31 29.36C170.47 30.47 169.26 30.94 167.68 30.94ZM167.84 15.31C164.84 15.31 162.42 16.2 160.68 17.94C158.94 19.68 158.1 22.1 158.1 25.15C158.1 28.05 158.94 30.31 160.63 31.99C162.31 33.68 164.57 34.52 167.36 34.52C170.31 34.52 172.63 33.63 174.36 31.84C176.1 30.05 176.94 27.68 176.94 24.73C176.94 21.84 176.15 19.47 174.52 17.84C172.94 16.15 170.73 15.31 167.84 15.31ZM151.1 15.31C149.05 15.31 147.36 15.84 146.05 16.89C144.73 17.94 144.1 19.31 144.1 20.94C144.1 21.78 144.26 22.57 144.52 23.2C144.78 23.84 145.26 24.41 145.84 24.89C146.42 25.36 147.31 25.89 148.47 26.36C149.47 26.78 150.21 27.1 150.68 27.42C151.15 27.68 151.47 27.94 151.63 28.2C151.78 28.47 151.89 28.84 151.89 29.26C151.89 30.47 150.94 31.1 149.05 31.1C148.36 31.1 147.52 30.94 146.68 30.68C145.78 30.36 145 29.99 144.26 29.42L144.1 29.31L144.1 33.52L144.15 33.57C144.78 33.84 145.57 34.1 146.47 34.31C147.36 34.52 148.21 34.57 148.94 34.57C151.15 34.57 153 34.05 154.26 32.99C155.57 31.94 156.26 30.52 156.26 28.84C156.26 27.63 155.89 26.52 155.21 25.68C154.52 24.84 153.26 24.05 151.57 23.36C150.21 22.84 149.36 22.36 149 21.99C148.63 21.68 148.47 21.2 148.47 20.57C148.47 20.05 148.68 19.63 149.15 19.26C149.63 18.89 150.21 18.73 151 18.73C151.73 18.73 152.47 18.84 153.21 19.05C153.94 19.26 154.57 19.57 155.15 19.94L155.31 20.05L155.31 16.05L155.26 15.99C154.73 15.78 154.1 15.57 153.31 15.47C152.47 15.41 151.73 15.31 151.1 15.31ZM132.68 30.94C131.1 30.94 129.84 30.42 128.94 29.36C128.05 28.31 127.63 26.84 127.63 24.94C127.63 22.99 128.1 21.47 128.94 20.41C129.84 19.36 131.05 18.84 132.63 18.84C134.15 18.84 135.36 19.36 136.21 20.36C137.05 21.36 137.52 22.89 137.52 24.84C137.52 26.84 137.1 28.36 136.31 29.36C135.52 30.47 134.31 30.94 132.68 30.94ZM132.89 15.31C129.89 15.31 127.47 16.2 125.73 17.94C124 19.68 123.15 22.1 123.15 25.15C123.15 28.05 124 30.31 125.68 31.99C127.36 33.68 129.63 34.52 132.42 34.52C135.36 34.52 137.68 33.63 139.42 31.84C141.15 30.05 142 27.68 142 24.73C142 21.84 141.21 19.47 139.57 17.84C138 16.15 135.73 15.31 132.89 15.31ZM116.52 18.94L116.52 15.78L112.21 15.78L112.21 34.1L116.52 34.1L116.52 24.73C116.52 23.15 116.89 21.84 117.57 20.84C118.26 19.84 119.21 19.36 120.36 19.36C120.73 19.36 121.21 19.41 121.68 19.57C122.15 19.68 122.47 19.84 122.68 19.99L122.84 20.1L122.84 15.73L122.78 15.68C122.36 15.52 121.84 15.41 121.1 15.41C120 15.41 119.05 15.78 118.21 16.47C117.52 17.1 117 17.89 116.52 18.94ZM104.52 15.31C102.52 15.31 100.78 15.73 99.26 16.57C97.73 17.41 96.57 18.63 95.78 20.15C94.99 21.68 94.57 23.47 94.57 25.41C94.57 27.15 94.94 28.73 95.73 30.15C96.52 31.57 97.57 32.68 98.94 33.41C100.31 34.15 101.89 34.57 103.68 34.57C105.73 34.57 107.47 34.15 108.89 33.36L108.94 33.31L108.94 29.36L108.78 29.52C108.15 29.99 107.42 30.36 106.68 30.63C105.94 30.89 105.21 31.05 104.63 31.05C102.94 31.05 101.57 30.52 100.57 29.47C99.57 28.42 99.1 26.94 99.1 25.1C99.1 23.26 99.63 21.73 100.68 20.63C101.73 19.52 103.05 18.94 104.73 18.94C106.15 18.94 107.52 19.41 108.84 20.36L109 20.47L109 16.31L108.94 16.26C108.47 15.99 107.78 15.73 106.94 15.57C106.1 15.41 105.26 15.31 104.52 15.31ZM91.63 15.78L87.31 15.78L87.31 34.1L91.63 34.1L91.63 15.78ZM89.52 7.94C88.84 7.94 88.21 8.2 87.68 8.68C87.15 9.15 86.89 9.78 86.89 10.47C86.89 11.15 87.15 11.78 87.63 12.26C88.15 12.73 88.73 12.94 89.47 12.94C90.21 12.94 90.84 12.73 91.31 12.26C91.84 11.78 92.1 11.2 92.1 10.47C92.1 9.78 91.84 9.2 91.36 8.68C90.89 8.2 90.26 7.94 89.52 7.94ZM78.78 14.41L78.78 34.1L83.21 34.1L83.21 8.52L77.1 8.52L69.36 27.52L61.84 8.52L55.52 8.52L55.52 34.1L59.68 34.1L59.68 14.41L59.84 14.41L67.78 34.1L70.89 34.1L78.68 14.41L78.78 14.41Z" fill="#706D6E" fill-opacity="1.000000" fill-rule="nonzero"/>
	<path d="M20.26 20.26L0 20.26L0 0L20.26 0L20.26 20.26Z" fill="#F1511B" fill-opacity="1.000000" fill-rule="nonzero"/>
	<path d="M42.68 20.26L22.42 20.26L22.42 0L42.68 0L42.68 20.26Z" fill="#80CC28" fill-opacity="1.000000" fill-rule="nonzero"/>
	<path d="M20.26 42.68L0 42.68L0 22.36L20.26 22.36L20.26 42.68Z" fill="#00ADEF" fill-opacity="1.000000" fill-rule="nonzero"/>
	<path d="M42.68 42.68L22.42 42.68L22.42 22.36L42.68 22.36L42.68 42.68Z" fill="#FBBC09" fill-opacity="1.000000" fill-rule="nonzero"/>
</svg>
