<svg width="160.000000" height="47.956177" viewBox="0 0 160 47.9562" fill="none" xmlns="http://www.w3.org/2000/svg" xmlns:xlink="http://www.w3.org/1999/xlink">
	<desc>
			Created with Pixso.
	</desc>
	<defs/>
	<path d="M23.97 0C10.73 0 0 10.73 0 23.97C0 37.21 10.73 47.95 23.97 47.95C37.21 47.95 47.95 37.21 47.95 23.97C48 10.73 37.26 0 23.97 0ZM34.98 34.58C34.54 35.28 33.62 35.5 32.92 35.06C27.26 31.6 20.2 30.86 11.83 32.74C11.04 32.92 10.21 32.43 10.03 31.6C9.86 30.81 10.34 29.98 11.17 29.8C20.33 27.7 28.14 28.62 34.49 32.48C35.2 32.96 35.41 33.88 34.98 34.58ZM37.91 28.05C37.39 28.93 36.2 29.19 35.33 28.66C28.88 24.72 19.06 23.53 11.44 25.86C10.43 26.16 9.42 25.6 9.11 24.63C8.81 23.62 9.38 22.61 10.34 22.31C19.06 19.68 29.89 20.95 37.3 25.51C38.18 26.03 38.48 27.17 37.91 28.05ZM38.18 21.26C30.46 16.65 17.7 16.26 10.3 18.49C9.11 18.84 7.84 18.19 7.49 17C7.14 15.82 7.8 14.55 8.98 14.2C17.44 11.61 31.56 12.14 40.46 17.4C41.51 18.01 41.86 19.41 41.24 20.47C40.63 21.52 39.23 21.87 38.18 21.26ZM65.27 22.13C61.1 21.12 60.4 20.47 60.4 18.98C60.4 17.62 61.72 16.65 63.64 16.65C65.53 16.65 67.37 17.35 69.3 18.8C69.34 18.84 69.43 18.84 69.52 18.84C69.61 18.84 69.65 18.8 69.69 18.71L71.71 15.86C71.8 15.73 71.75 15.6 71.67 15.51C69.34 13.67 66.76 12.75 63.69 12.75C59.22 12.75 56.1 15.43 56.1 19.28C56.1 23.4 58.82 24.85 63.47 25.99C67.41 26.91 68.12 27.66 68.12 29.01C68.12 30.55 66.76 31.47 64.56 31.47C62.15 31.47 60.18 30.64 57.95 28.75C57.9 28.71 57.81 28.66 57.73 28.66C57.64 28.66 57.6 28.71 57.55 28.75L55.27 31.47C55.18 31.6 55.18 31.73 55.32 31.86C57.9 34.14 61.06 35.37 64.43 35.37C69.26 35.37 72.37 32.74 72.37 28.66C72.37 25.24 70.31 23.36 65.27 22.13ZM83.28 18.06C81.18 18.06 79.47 18.89 78.07 20.55L78.07 18.67C78.07 18.54 77.93 18.41 77.8 18.41L74.08 18.41C73.95 18.41 73.81 18.54 73.81 18.67L73.81 39.75C73.81 39.89 73.95 40.02 74.08 40.02L77.8 40.02C77.93 40.02 78.07 39.89 78.07 39.75L78.07 33.09C79.47 34.67 81.18 35.46 83.28 35.46C87.18 35.46 91.09 32.48 91.09 26.78C91.09 21.04 87.18 18.06 83.28 18.06ZM86.79 26.73C86.79 29.63 84.99 31.69 82.45 31.69C79.91 31.69 77.98 29.58 77.98 26.73C77.98 23.93 79.91 21.78 82.45 21.78C84.95 21.83 86.79 23.89 86.79 26.73ZM101.17 18.06C96.17 18.06 92.27 21.91 92.27 26.82C92.27 31.69 96.17 35.5 101.12 35.5C106.12 35.5 110.07 31.64 110.07 26.78C110.07 21.87 106.17 18.06 101.17 18.06ZM101.17 31.73C98.49 31.73 96.52 29.58 96.52 26.78C96.52 23.93 98.45 21.87 101.12 21.87C103.8 21.87 105.81 24.02 105.81 26.82C105.81 29.67 103.84 31.73 101.17 31.73ZM120.72 18.36L116.64 18.36L116.64 14.2C116.64 14.07 116.51 13.93 116.38 13.93L112.65 13.93C112.52 13.93 112.39 14.07 112.39 14.2L112.39 18.36L110.59 18.36C110.46 18.36 110.33 18.49 110.33 18.63L110.33 21.83C110.33 21.96 110.46 22.09 110.59 22.09L112.39 22.09L112.39 30.33C112.39 33.66 114.06 35.37 117.34 35.37C118.66 35.37 119.75 35.11 120.81 34.49C120.89 34.45 120.94 34.36 120.94 34.27L120.94 31.25C120.94 31.16 120.89 31.07 120.81 31.03C120.72 30.99 120.63 30.99 120.54 31.03C119.84 31.38 119.14 31.56 118.35 31.56C117.17 31.56 116.64 31.03 116.64 29.8L116.64 22.13L120.72 22.13C120.85 22.13 120.98 22 120.98 21.87L120.98 18.67C121.03 18.49 120.89 18.41 120.72 18.36ZM134.97 18.41L134.97 17.88C134.97 16.39 135.53 15.69 136.85 15.69C137.64 15.69 138.25 15.86 138.95 16.08C139.04 16.13 139.13 16.08 139.22 16.04C139.31 16 139.35 15.91 139.35 15.82L139.35 12.71C139.35 12.58 139.26 12.49 139.17 12.44C138.43 12.23 137.51 12.01 136.11 12.01C132.69 12.01 130.89 13.93 130.89 17.57L130.89 18.36L129.09 18.36C128.96 18.36 128.83 18.49 128.83 18.63L128.83 21.83C128.83 21.96 128.96 22.09 129.09 22.09L130.89 22.09L130.89 34.8C130.89 34.93 131.02 35.06 131.15 35.06L134.88 35.06C135.01 35.06 135.14 34.93 135.14 34.8L135.14 22.09L138.6 22.09L143.91 34.8C143.29 36.12 142.72 36.42 141.89 36.42C141.23 36.42 140.53 36.25 139.83 35.85C139.74 35.81 139.7 35.81 139.61 35.85C139.52 35.9 139.48 35.94 139.44 35.98L138.17 38.75C138.12 38.88 138.17 39.01 138.3 39.1C139.61 39.8 140.8 40.1 142.24 40.1C144.96 40.1 146.49 38.83 147.81 35.41L154.25 18.8C154.3 18.71 154.3 18.63 154.21 18.54C154.17 18.45 154.08 18.41 153.99 18.41L150.13 18.41C150 18.41 149.91 18.49 149.87 18.58L145.92 29.89L141.58 18.58C141.54 18.49 141.45 18.41 141.32 18.41L134.97 18.41ZM126.72 18.36L123 18.36C122.87 18.36 122.74 18.49 122.74 18.63L122.74 34.8C122.74 34.93 122.87 35.06 123 35.06L126.72 35.06C126.86 35.06 126.99 34.93 126.99 34.8L126.99 18.63C126.99 18.49 126.86 18.36 126.72 18.36ZM124.88 11C123.39 11 122.21 12.18 122.21 13.67C122.21 15.16 123.39 16.35 124.88 16.35C126.37 16.35 127.56 15.16 127.56 13.67C127.51 12.23 126.33 11 124.88 11ZM157.37 23.58C155.92 23.58 154.74 22.4 154.74 20.95C154.74 19.5 155.87 18.32 157.37 18.32C158.81 18.32 160 19.5 160 20.95C160 22.4 158.86 23.58 157.37 23.58ZM157.37 18.63C156.01 18.63 155 19.68 155 20.99C155 22.31 156.01 23.36 157.32 23.36C158.68 23.36 159.69 22.31 159.69 20.99C159.73 19.68 158.72 18.63 157.37 18.63ZM157.98 21.21L158.72 22.26L158.11 22.26L157.45 21.3L156.88 21.3L156.88 22.26L156.36 22.26L156.36 19.5L157.58 19.5C158.24 19.5 158.64 19.81 158.64 20.38C158.59 20.86 158.33 21.12 157.98 21.21ZM157.54 19.98L156.88 19.98L156.88 20.86L157.54 20.86C157.89 20.86 158.07 20.69 158.07 20.42C158.07 20.16 157.85 19.98 157.54 19.98Z" fill="#1ED760" fill-opacity="1.000000" fill-rule="nonzero"/>
</svg>
